<svg width="504" height="519" viewBox="0 0 504 519" fill="none" xmlns="http://www.w3.org/2000/svg">
<path d="M489.51 420.71C489.978 452.702 489.978 486.803 489.51 518.986H270.614C270.152 518.837 270.157 518.656 270.614 518.455C271.108 486.24 271.108 453.833 270.614 421.241C269.838 421.911 269.546 421.613 270.083 420.71C342.648 422.006 416.887 421.475 489.51 420.71Z" fill="#D8281B"/>
<path d="M490.042 518.986H489.51V420.71C489.686 420.71 489.866 420.71 490.042 420.71V518.986Z" fill="#C80302"/>
<path d="M270.614 518.455V421.241C270.965 421.831 271.4 422.128 271.177 423.047C270.821 453.871 271.538 484.72 271.156 515.538C271.145 516.436 271.496 517.902 270.614 518.455Z" fill="#BD0201"/>
<path d="M239.267 518.986L238.704 495.414C238.768 495.181 240.452 494.554 240.596 494.554H250.159C252.034 494.554 251.562 486.378 251.508 484.704C250.217 442.582 248.167 400.416 247.747 358.315C247.487 332.177 248.299 306.066 248.305 279.94L280.177 294.283C280.326 295.016 279.997 295.595 279.763 296.254C277.574 302.417 271.395 311.113 268.393 317.823C255.206 347.307 252.502 381.934 284.072 400.082C286.086 401.24 288.827 401.92 290.272 403.71H261.848C261.497 403.71 260.131 405.421 259.999 406.111C259.722 407.546 259.813 418.075 260.264 419.1C261.364 421.597 267.602 420.662 270.083 420.705C270.216 420.907 270.508 421.055 270.614 421.236C270.954 453.222 271.257 486.447 270.614 518.449V518.98H239.267V518.986Z" fill="#FCFCFC"/>
<path d="M148.946 518.986L151.602 495.08H165.947L166.479 518.986H148.946Z" fill="#FCFCFC"/>
<path d="M72.4384 518.986L73.501 494.548H62.6093C60.7338 494.548 61.2067 486.372 61.2598 484.699C62.7049 437.025 67.0722 389.446 68.2092 341.841C68.443 332.023 67.9967 322.158 68.1827 312.34L57.9976 329.505C36.023 358.958 -3.07021 344.688 0.191982 306.768C1.49898 291.6 16.4179 266.86 23.9996 253.016C33.2549 236.111 45.8786 210.234 61.026 198.669C62.7262 197.373 68.1667 194.711 68.8574 193.218C71.8911 186.689 62.4074 166.704 75.8972 166.884C85.8378 167.017 87.4689 178.46 88.9247 185.637C89.0575 186.291 88.5262 186.583 89.7057 186.445L107.499 178.2C109.082 175.979 109.736 173.201 111.133 170.678C113.195 166.943 117.355 159.144 122.375 160.94C123.481 155.351 120.564 151.855 119.055 147.005C117.987 143.578 117.392 139.987 116.515 136.518C98.6794 142.633 87.3361 109.191 103.78 102.237C104.566 101.902 105.868 102.125 106.458 101.732C107.419 101.094 106.075 94.2785 105.91 92.6795C105.799 91.5639 106.165 89.8107 105.942 89.0192C105.794 88.4986 104.625 88.7217 104.051 88.1745C102.765 86.9526 102.919 75.1376 102.712 72.4973C102.313 67.3442 101.299 61.6598 101.102 56.5758C100.767 47.927 101.203 45.2124 108.737 40.7924C126.541 30.3427 156.017 26.3477 176.148 29.8805C183.459 31.1661 191.599 32.7652 193.963 40.7552C195.642 46.4236 196.598 57.7977 197.22 64.0611C197.682 68.7042 198.564 73.3048 196.79 77.7301L198.862 96.8445C211.135 99.3892 211.847 119.343 204.143 126.626C203.202 127.514 200.95 128.199 200.578 129.437C200.057 131.142 200.673 134.229 200.471 136.237C199.722 143.722 197.22 152.227 192.948 158.464C192.077 159.739 186.806 165.131 187.2 165.716C192.38 167.942 195.722 173.36 197.958 178.343C218.026 182.848 235.734 187.954 252.714 199.827C266.773 209.655 279.816 221.226 295.298 228.961L312.858 172.112C315.833 170.114 317.012 161.747 317.294 157.959C318.298 144.529 306.657 135.041 312.326 118.992C313.91 114.514 318.957 106.455 324.047 105.748C325.986 105.477 328.85 106.359 329.742 106.147C330.215 106.035 332.718 103.485 333.865 102.81C334.721 102.306 338.504 101.094 338.636 100.558C338.366 91.2982 339.168 81.9483 338.084 72.7576C333.717 74.0805 329.891 76.3755 325.333 73.8201V83.117C325.333 84.4504 322.708 85.7254 321.566 84.2273C320.423 82.7292 321.204 73.4801 321.465 70.978C317.73 64.6348 317.682 53.5264 320.291 46.7371C323.107 39.4111 330.136 37.0311 333.956 30.6508L334.896 14.3255H320.551C322.039 22.3952 313.665 21.848 316.301 14.3255H18.5113C16.9705 14.3255 14.1333 7.56273 20.6365 6.88804L318.346 6.80304C322.012 -2.03163 333.818 -2.44601 337.537 6.64367L483.9 6.91991C486.418 7.25991 488.012 9.94272 487.284 12.3546C487.151 12.8008 485.685 14.3255 485.525 14.3255H339.152V29.9974C339.152 36.2502 327.484 42.1311 324.95 47.6667C322.395 53.2449 322.793 60.5655 324.286 66.3827C328.887 63.6945 333.18 62.4567 338.084 65.3202C339.524 63.2802 339.061 56.528 342.047 56.7989C347.19 57.2611 341.314 67.6576 341.314 69.3098C341.314 70.2767 342.68 72.832 342.866 74.6276C343.705 82.7292 342.255 92.1429 342.866 100.388C353.269 100.154 363.926 102.486 367.035 113.669C370.509 126.159 367.072 154.496 360.09 165.678C358.358 168.452 356.015 169.217 356.196 172.808C357.519 199.03 373.208 227.059 382.049 251.651C401.622 306.114 404.125 361.773 351.85 398.084L341.803 403.71H391.214C387.155 399.37 384.966 395.794 385.354 389.611C385.827 381.993 391.283 378.104 395.055 372.223C402.573 360.498 402.005 346.277 415.824 338.802C427.486 332.496 449.503 334.494 460.655 341.453C469.9 347.222 474.554 358.602 481.551 366.772C484.532 370.252 488.108 372.781 490.69 376.76C497.358 387.045 494.674 397.122 484.723 403.705H501.99C502.341 403.705 503.707 405.415 503.839 406.106C504.153 407.742 504.015 418.787 503.361 419.817C502.431 421.284 492.315 420.673 490.036 420.705C489.941 421.177 489.76 421.162 489.505 420.705L481.434 421.496C413.704 422.787 345.862 423.202 278.132 421.549L270.072 420.705C270.051 420.96 270.008 421.204 269.897 421.411C269.248 422.638 261.353 421.762 259.967 420.476C258.58 419.191 258.378 407.928 258.952 405.888C259.313 404.603 260.562 402.451 261.831 403.699C261.879 403.28 262.023 402.653 262.32 402.637C269.158 402.313 277.245 402.377 284.114 402.637C286.25 402.552 288.343 402.557 290.256 403.699C244.883 386.912 254.755 333.054 276.602 300.637L279.072 295.016L249.117 281.464C248.002 350.171 249.819 419.27 252.645 487.801C252.709 489.857 252.858 496.046 250.143 494.538C250.143 494.814 250.111 495.064 249.983 495.244C249.681 495.664 240.664 496.27 240.579 494.538C240.967 495.457 240.563 495.717 239.767 496.004L240.298 518.322L239.251 518.975H166.463C166.213 519.007 165.974 519.018 165.756 518.949C164.64 518.603 164.63 497.741 164.885 495.717L165.932 495.069C165.884 495.483 165.746 496.11 165.453 496.131C161.851 496.413 155.97 496.408 152.357 496.131L151.586 495.069C151.995 495.117 152.606 495.276 152.601 495.542C152.474 501.598 151.241 512.515 150.056 518.465L148.93 518.97H72.4225L72.4384 518.986Z" fill="#0C0C0A"/>
<path d="M109.576 182.227C111.744 187.89 114.714 192.666 116.382 198.542C118.662 206.558 120.373 216.307 121.685 224.583C122.514 229.822 122.461 236.521 123.555 241.307C124.41 245.031 131.54 243.91 134.888 243.831C155.55 243.342 176.361 242.938 197.007 242.194C199.797 242.093 209.153 242.811 210.805 241.647C212.075 240.755 211.719 238.603 211.629 237.174C211.098 228.499 208.882 216.811 207.219 208.12C205.604 199.668 203.537 191.301 200.482 183.258C200.817 183.003 207.394 184.74 208.202 185.361C209.456 186.328 212.968 193.256 213.86 195.11C230.75 230.247 228.902 273.687 244.017 309.451C244.123 350.208 243.608 391.008 245.664 431.579C245.43 451.342 247.2 471.051 247.237 490.835L65.0002 490.298C66.3126 476.688 66.4348 462.828 67.1042 449.111C68.7034 416.237 70.6108 383.278 71.9284 350.346C72.0772 346.68 71.2643 330.86 73.1026 328.942C73.6658 328.352 76.5295 327.481 77.5868 326.791C94.0784 315.916 100.497 293.433 104.588 275.164C105.257 272.167 105.682 266.095 106.537 263.832C107.021 262.562 112.621 260.825 113.646 256.602C114.794 251.884 111.792 249.637 111.898 248.32C111.941 247.794 114.093 246.184 114.64 245.371C116.712 242.29 116.366 239.437 114.868 236.191C114.571 235.554 113.497 234.953 113.407 234.443C113.343 234.082 115.963 230.241 116.032 228.127C116.181 223.595 111.941 220.158 111.904 219.648C111.866 219.191 113.131 217.56 113.322 216.423C114.433 209.661 110.591 205.618 104.853 203.047L100.555 186.169C100.465 185.733 100.608 185.574 100.937 185.324C101.633 184.788 109.151 181.913 109.587 182.232L109.576 182.227Z" fill="#FCFCFC"/>
<path d="M324.233 177.451C321.784 188.724 320.152 199.578 316.173 210.473C311.391 223.558 303.576 234.831 298.513 247.533C293.864 259.21 291.266 271.833 286.112 283.478C285.448 284.976 283.392 289.603 282.552 290.581C282.218 290.968 282.223 290.963 281.739 290.883C280.331 290.655 276.124 288.695 274.508 287.993C265.864 284.232 257.555 279.398 248.921 275.599L248.857 248.298C248.406 244.606 244.968 245.685 244.554 248.83C243.183 259.226 245.616 272.672 244.601 283.409C243.597 287.935 244.229 292.599 244.049 297.205C244.022 297.848 244.447 299.181 243.523 299.054C236.813 273.246 233.752 246.535 227.01 220.737C223.907 208.864 219.742 197.41 214.301 186.434C245.552 193.155 265.891 218.256 293.221 232.621C293.869 233.099 294.028 233.668 293.986 234.449C293.805 238.072 290.028 244.564 290.23 248.325C290.325 250.131 291.372 250.864 293.13 250.747L315.78 174.747L324.233 177.446V177.451Z" fill="#D8271A"/>
<path d="M68.188 199.195C66.4878 203.934 64.3891 208.55 63.0237 213.417C61.0207 220.572 59.0602 243.119 53.0724 246.492C52.0258 247.082 51.0003 246.875 50.1609 247.3C45.2676 249.765 41.5644 256.469 38.1322 260.241C31.05 268.029 20.4983 275.233 13.7242 283.648C11.4609 286.458 10.6108 290.267 15.3553 288.461L37.3671 266.653C41.2031 282.66 55.272 294.666 71.3705 297.195C70.8126 298.278 69.8403 299.442 69.3834 300.52C61.3714 319.523 44.6088 351.223 18.7503 338.653C0.00069952 329.542 2.24279 306.401 9.11784 290.198C18.3837 268.369 35.3004 238.927 48.3067 218.883C53.3965 211.037 59.3949 203.116 68.1826 199.19L68.188 199.195Z" fill="#D8281A"/>
<path d="M102.723 264.533C97.7071 286.262 93.5576 313.005 72.4437 325.085C72.3693 323.236 72.5393 321.366 72.4331 319.512C72.2099 315.501 71.7955 307.405 72.5553 303.686C73.0069 301.482 77.3423 294.289 78.7184 291.786C80.0944 289.284 86.2203 280.843 85.6412 278.718C85.45 278.011 83.3088 276.487 83.5904 276.216C87.5858 275.557 91.3899 272.279 93.903 269.256C94.6734 268.332 95.805 265.665 96.347 265.325C97.0217 264.905 102.255 264.193 102.717 264.528L102.723 264.533Z" fill="#D8281A"/>
<path d="M50.1183 253.377C52.2594 267.296 65.3454 282.091 80.4078 281.002C79.1858 282.532 74.7654 292.079 73.9259 292.567C72.6774 293.295 67.6778 291.829 66.068 291.351C57.2271 288.742 49.0557 282.128 44.3856 274.25C42.882 271.711 39.8429 264.996 40.6611 262.254C40.8258 261.697 47.9346 254.487 48.79 253.898C49.2416 253.59 49.316 253.154 50.1236 253.377H50.1183Z" fill="#D8281A"/>
<path d="M166.479 239.033L127.157 239.565C126.918 227.553 123.953 215.754 121.849 203.971C124.129 205.825 125.839 210.76 129.431 209.719C130.749 209.337 136.003 201.368 137.512 199.71C140.121 196.842 143.351 193.766 147.58 194.435C151.183 195.003 159.508 206.319 162.627 209.14L166.473 239.028L166.479 239.033Z" fill="#D8281A"/>
<path d="M202.602 205.033L207.314 237.897L170.756 239.007L167.005 208.487C167.196 207.212 168.545 207.079 169.364 206.069C175.165 198.924 177.79 187.295 188.799 196.268C191.067 198.117 196.582 205.007 198.362 205.825C200.854 206.973 202.458 204.858 202.597 205.039L202.602 205.033Z" fill="#D8281A"/>
<path d="M143.627 190.153C136.343 191.954 133.219 199.041 128.783 204.168C127.763 205.347 124.463 200.56 123.757 199.668C120.388 195.391 113.258 184.24 112.382 179.135C111.818 175.841 117.45 167.788 120.24 165.726C124.655 176.633 135.376 182.535 143.622 190.153H143.627Z" fill="#D8281A"/>
<path d="M199.414 200.252C193.735 195.715 189.192 187.619 180.824 188.565C182.593 182.429 187.051 176.744 186.668 169.976C187.279 169.254 189.92 172.516 190.292 172.989C195.706 179.794 199.605 191.593 199.409 200.258L199.414 200.252Z" fill="#D8291B"/>
<path d="M101.129 202.903L89.9765 202.372C89.4612 198.515 89.2487 194.648 89.5037 190.748C91.9158 190.509 93.8497 188.703 96.0015 187.938C96.4903 187.763 96.6284 187.146 97.1544 188.028C99.0724 191.253 99.2584 199.2 101.134 202.903H101.129Z" fill="#D9291A"/>
<path d="M332.245 6.88278H323.744C325.731 4.18934 330.524 3.72184 332.245 6.88278Z" fill="#FAFAF9"/>
<path d="M334.365 68.513C335.109 69.3152 334.163 69.4214 333.685 69.6924C331.878 70.7071 329.923 70.8505 327.989 70.0961C328.728 68.2633 333.26 67.323 334.36 68.5183L334.365 68.513Z" fill="#E8E8E8"/>
<path d="M341.808 156.69C342.393 159.564 341.808 162.634 340.039 165.891L333.387 182.158C330.306 197.288 326.039 211.791 320.604 225.662C332.314 227.383 340.289 233.806 344.805 244.925C349.868 258.599 356.031 269.32 369.797 275.557C405.235 300.839 383.138 358.373 358.029 383.539C349.31 392.278 338.61 399.965 326.406 402.648C290.198 407.843 260.264 389.101 263.186 349.799C264.987 325.558 280.709 305.955 289.836 284.546C294.979 272.481 297.7 259.338 302.779 247.549C309.186 232.68 317.852 220.238 322.533 204.088C324.807 196.247 325.349 187.778 327.846 180.182C330.439 172.293 335.481 164.887 336.968 156.472C337.585 155.564 340.719 156.594 341.814 156.695L341.808 156.69Z" fill="#FBFBFB"/>
<path d="M348.715 266.658C349.146 266.18 354.087 270.76 354.91 271.349C363.491 277.459 371.062 279.329 377.092 289.013C397.08 321.09 370.392 372.202 341.229 390.126C339.024 391.481 334.211 395.306 333.318 390.689C332.58 386.875 334.79 380.091 334.386 375.278C334.195 373.025 332.718 370.31 332.728 368.913C332.75 366.804 337.988 362.14 338.992 358.676C340.129 354.766 338.86 353.316 338.626 349.788C337.717 336.13 355.383 324.086 360.855 310.407C361.642 308.436 363.395 303.474 359.867 305.7C356.717 310.864 353.938 316.282 350.426 321.228C348.667 323.704 340.926 334.069 337.558 332.299C334.715 330.807 337.197 318.97 337.723 315.969C340.698 299.134 348.768 283.807 348.715 266.664V266.658Z" fill="#D8281B"/>
<path d="M322.543 231.702C328.584 230.528 335.762 238.996 338.514 243.65C344.539 253.829 345.464 266.393 343.153 277.831C342.005 283.504 339.141 295.303 332.006 287.345C326.448 281.146 322.501 266.09 321.619 257.887C321.518 256.931 322.118 252.437 320.551 253.106C318.984 253.776 319.35 260.347 319.499 262.132C320.54 274.84 327.097 284.662 331.437 295.882C335.289 305.838 335.348 332.677 324.387 338.218C312.289 344.332 305.404 332.432 301.174 322.96C297.328 314.349 294.448 305.195 290.346 296.674C297.567 281.592 300.675 264.719 307.353 249.472C309.898 243.666 315.743 233.036 322.549 231.707L322.543 231.702Z" fill="#D8281A"/>
<path d="M287.419 302.815C289.008 302.539 293.136 311.533 293.911 313.212C297.37 320.702 299.299 328.453 304.182 335.349C308.629 341.634 314.058 343.349 309.489 352.54C306.902 357.746 301.142 357.146 296.281 359.521C292.089 361.571 287.605 365.635 285.055 369.545C282.276 373.801 280.889 383.905 274.864 377.408C263.569 365.232 268.706 341.023 274.073 327.221C275.342 323.954 285.209 303.198 287.419 302.815Z" fill="#D8281B"/>
<path d="M302.88 360.806C312.077 359.34 311.593 364.955 317.538 367.675C324.212 370.73 331.055 366.586 331.124 377.886C331.145 380.951 329.418 391.274 327.915 393.802C321.879 403.97 299.894 398.578 291.51 393.701C281.511 387.884 280.74 382.094 286.962 372.51C290.256 367.436 296.733 361.789 302.885 360.806H302.88Z" fill="#D8281B"/>
<path d="M322.538 345.405C327.272 344.593 331.071 346.457 332.521 351.1C335.688 361.221 322.448 367.452 317.124 359.064C313.931 354.033 316.508 346.441 322.538 345.405Z" fill="#D7291B"/>
<path d="M326.401 402.648C346.138 395.454 362.109 380.994 372.369 362.814C385.301 339.902 395.193 308.712 378.367 285.077C372.119 276.295 365.318 275.073 357.79 268.996C344.385 258.18 345.979 234.029 326.826 228.244C325.03 227.702 320.057 227.697 319.568 225.896C319.148 224.35 322.814 217.396 323.611 215.255C327.713 204.258 328.579 195.205 331.575 184.437C334.179 175.066 339.752 166.311 341.808 156.684C343.657 156.854 349.496 156.722 350.203 158.645C352.02 168.765 352.695 179.114 354.714 189.197C358.481 207.987 368.363 226.746 375.147 244.734C392.542 290.862 403.434 339.37 367.05 379.804C355.027 393.165 344.417 400.055 326.401 402.637V402.648Z" fill="#D7281A"/>
<path d="M347.647 173.158C345.782 185.159 345.496 195.147 348.014 207.063C352.238 227.038 360.786 245.817 370.796 263.444C370.796 267.152 368.081 263.12 367.088 261.829C352.312 242.63 339.497 200.018 345.235 176.33C345.628 174.715 345.586 172.59 347.647 173.158Z" fill="#FAF9F9"/>
<path d="M194.101 72.7524C175.538 69.6818 155.577 70.8612 137.146 74.5055C126.924 76.5243 116.723 79.5896 107.504 84.4399C106.697 76.7686 106.426 69.0337 105.9 61.3359C105.533 55.949 102.967 50.2859 107.855 46.2856C121.749 34.9009 155.789 30.9006 173.025 33.5303C178.731 34.4015 188.427 35.5012 190.016 42.0409L194.096 72.7524H194.101Z" fill="#FCFCFC"/>
<path d="M176.441 135.525C180.341 135.079 177.636 140.37 176.478 141.99C169.895 151.186 151.969 151.484 147.14 141.23C143.946 134.446 150.869 137.878 154.53 138.091C159.652 138.388 165.188 138.234 170.214 137.32C172.148 136.97 174.847 135.705 176.441 135.525Z" fill="#FCFCFC"/>
<path d="M199.951 123.752L198.888 100.914C205.917 104.208 206.576 112.947 203.925 119.502C203.261 121.139 201.911 123.487 199.951 123.758V123.752Z" fill="#FAFAFA"/>
<path d="M107.504 131.19C107.201 127.407 112.137 125.845 114.943 124.815C114.943 124.884 115.463 125.41 115.495 126.1C115.591 128.417 115.867 131.418 113.848 133.017C111.829 134.616 107.743 134.159 107.504 131.19Z" fill="#D82718"/>
<path d="M114.943 124.815C115.097 125.293 115.012 125.707 114.661 126.047C111.489 126.765 109.295 128.9 107.504 131.19C102.765 128.805 99.1098 119.561 99.588 114.519C100.295 107.092 108.583 101.764 113.046 109.977C115.601 114.679 114.794 119.736 114.943 124.815Z" fill="#FBFBFB"/>
<path d="M105.709 112.107C108.084 111.337 111.032 116.549 111.521 118.429C112.042 120.427 110.889 121.117 109.104 120.294C107.69 119.646 103.137 112.941 105.709 112.102V112.107Z" fill="#0D0D0B"/>
<path d="M193.012 76.503C193.039 85.0933 194.654 93.6783 195.159 102.247C195.594 109.616 196.556 125.505 193.427 131.843C190.722 137.315 189.835 132.305 186.929 130.133C182.131 126.536 177.323 127.556 171.792 128.002C172.685 125.681 174.231 123.975 174.252 121.277C174.268 119.178 167.914 104.006 166.479 103.299C165.517 102.826 163.737 102.726 163.344 103.91C162.043 107.815 172.913 118.195 168.344 124.294C164.821 128.996 159.694 126.037 155.061 126.95C153.234 127.312 153.393 129.139 152.309 129.511C150.545 130.122 146.162 129.341 143.893 129.596C140.031 130.032 137.571 132.417 135.143 135.185C133.99 136.502 133.028 139.945 131.126 138.654C126.647 135.615 122.02 122.801 120.941 117.484C118.864 107.23 121.138 98.6455 120.808 88.403C120.755 86.788 119.517 84.3283 120.771 83.0958C121.637 82.2458 132.428 79.7596 134.5 79.2974C153.462 75.0315 173.758 73.289 193.018 76.503H193.012Z" fill="#FCFCFC"/>
<path d="M131.551 92.0155C133.267 90.2411 140.254 88.6049 142.852 88.6633C144.935 88.7111 154.094 90.6077 150.317 93.5189C148.829 94.6664 143.968 92.6849 141.242 92.9399C138.341 93.2108 135.047 95.7449 132.741 95.6493C130.436 95.5536 130.345 93.2639 131.551 92.0155Z" fill="#0C0C0A"/>
<path d="M179.108 86.7136C181.653 86.4746 190.871 87.1174 189.777 90.969C188.996 93.7102 183.64 90.7777 181.084 90.7724C178.731 90.7671 170.692 94.1565 170.713 90.5546C170.729 88.1108 177.238 86.8943 179.108 86.719V86.7136Z" fill="#0C0C0A"/>
<path d="M141.099 103.161C144.94 99.3361 149.631 108.474 144.972 112.081C140.089 115.858 138.463 105.785 141.099 103.161Z" fill="#0D0D0B"/>
<path d="M179.581 100.494C183.449 100.154 185.011 108.516 181.345 110.206C175.872 112.724 175.665 100.84 179.581 100.494Z" fill="#0B0B09"/>
<path d="M85.7208 202.377C83.8772 202.606 78.2773 202.377 77.8257 204.343C77.7141 204.821 78.086 206.367 78.3623 206.548C79.1327 207.036 93.9985 206.447 96.6338 206.601C98.9821 206.739 104.21 207.238 106.102 208.29C109.034 209.916 111.521 216.253 107.531 217.544C103.084 218.989 93.6319 216.848 88.6536 217.794C86.7834 218.15 85.9386 220.254 87.6229 221.454C89.3071 222.655 90.6672 221.497 92.3355 221.476C96.3522 221.423 105.942 220.928 109.072 222.852C111.771 224.514 113.163 229.726 110.139 231.314C106.309 233.328 95.6243 231.415 90.8001 232.164C87.5379 232.669 87.5963 235.862 90.2475 236.361C95.8155 236.611 101.686 235.182 107.244 235.835C110.745 236.244 113.008 239.958 111.245 243.05C108.206 248.362 96.2725 245.786 91.257 247.496C90.8585 248.065 90.8585 249.658 91.257 250.227C92.2186 251.597 104.63 250.211 107.111 250.301C112.753 253.351 109.624 257.664 104.832 259.481C101.219 260.847 98.9449 260.342 95.5712 260.847C92.5852 261.298 93.0475 263.561 91.7883 265.564C89.7906 268.736 86.369 271.217 82.8996 272.614C81.7254 273.087 78.9892 273.193 78.3995 273.687C76.779 275.042 79.8074 277.262 74.877 276.688C66.6152 275.732 55.952 262.929 54.6025 255.003C53.6993 249.696 56.9402 248.654 59.2514 244.718C63.8949 236.802 63.9109 225.901 66.0945 217.029C69.8083 201.926 73.3893 198.733 72.9855 181.377C72.8899 177.286 70.1218 169.137 77.8841 171.172C86.5284 173.44 85.0567 195.54 85.7155 202.383L85.7208 202.377Z" fill="#FCFCFC"/>
<path d="M355.096 165.19C354.83 163.012 354.193 155.856 352.732 154.533C350.516 152.53 338.658 152.716 334.986 151.558C332.962 150.92 331.193 148.891 332.107 146.745C333.844 142.665 339.465 142.707 343.131 142.877C345.267 142.978 352.248 145.151 352.886 142.495C353.05 141.82 352.679 140.55 352.078 140.168C350.208 138.999 339.933 138.978 337.287 139.143C334.641 139.307 331.889 141.687 330.746 136.635C329.222 129.899 339.391 129.878 343.684 130.09C345.958 130.207 352.652 132.406 353.412 129.74C354.272 126.717 349.082 126.626 346.845 126.403C341.936 125.909 336.458 126.074 331.713 127.455L333.36 118.482C337.265 117.547 341.218 117.128 345.251 117.367C347.785 117.515 353.529 119.768 354.331 116.841C355.133 113.914 349.985 113.797 347.907 113.648C343.067 113.308 338.094 113.68 333.302 114.174C332.803 109.541 331.246 108.537 336.128 106.104C342.86 102.752 357.296 104.155 361.7 111.002C366.37 118.265 363.618 141.539 361.626 150.193C360.441 155.34 358.783 161.285 355.085 165.163L355.096 165.19Z" fill="#FCFCFC"/>
<path d="M182.412 168.909C182.327 170.885 182.625 172.919 182.29 174.89C181.685 178.487 170.655 197.495 167.977 200.953C167.207 201.947 164.911 204.858 163.615 204.47C163.174 204.338 159.211 198.186 158.244 197.054C150.046 187.47 132.258 178.439 126.594 168.669C125.09 166.077 127.061 162.688 126.631 159.872C141.067 175.05 163.822 178.907 182.407 168.903L182.412 168.909Z" fill="#FCFCFC"/>
<path d="M326.315 134.457C326.873 134.797 326.863 137.714 327.187 138.638C327.591 139.807 329.424 142.208 329.498 142.707C329.567 143.164 328.223 145.066 328.042 146.378C327.405 150.926 329.344 153.614 333.329 155.399L326.082 173.61L318.92 171.783C319.26 167.575 320.79 163.272 321.077 159.075C322.198 142.638 307.55 130.388 319.579 114.02C325.295 106.242 330.167 108.888 329.572 118.174C329.424 120.501 327.835 127.073 326.342 128.757C325.072 130.191 322.618 129.208 322.623 131.997C322.628 135.126 325.391 133.91 326.31 134.468L326.315 134.457Z" fill="#FCFCFC"/>
<path d="M442.224 402.648L443.186 401.16C460.443 394.865 457.042 376.988 451.692 363.255C448.084 354.001 442.251 343.344 431.965 340.672L431.067 339.429C436.699 338.435 444.334 339.572 449.886 341.065C465.416 345.23 468.306 356.748 477.301 367.835C483.358 375.304 493.373 381.206 489.68 392.458C489.053 394.376 486.838 396.894 485.217 398.089C476.44 404.565 453.286 402.446 442.219 402.642L442.224 402.648Z" fill="#D8281A"/>
<path d="M431.067 339.429C442.995 341.161 450.38 355.738 453.759 365.88C458.865 381.212 460.273 396.405 442.224 402.648C430.031 402.865 417.498 403.912 405.272 403.205C400.751 402.945 396.495 402.621 393.063 399.476C381.895 389.233 397.016 377.902 401.601 368.674C406.059 359.707 406.202 350.994 414.873 344.226C418.868 341.108 426.014 338.701 431.067 339.434V339.429Z" fill="#FAFAFA"/>
<path d="M419.559 369.365C418.709 370.273 417.391 372.839 417.083 374.061C416.26 377.318 417.753 378.8 414.007 380.548C408.848 382.959 403.455 381.472 398.121 380.861C400.315 377.179 403.423 373.562 405.315 369.737C407.477 365.364 408.269 360.434 410.245 356.078C414.379 346.957 423.836 341.389 433.708 345.023C437.193 346.309 443.84 352.312 443.84 356.169C443.84 359.802 436.444 366.496 433.059 367.245C430.908 367.723 428.267 366.326 425.542 366.581C423.57 366.762 420.898 367.925 419.554 369.37L419.559 369.365Z" fill="#D7281B"/>
<path d="M445.752 360.764C446.321 360.658 447.059 361.146 447.516 361.497C449.843 363.277 453.127 376.77 453.371 380.08C453.998 388.559 451.506 394.721 443.027 397.346C439.834 398.334 430.159 399.71 427.369 398.111C426.402 397.553 426.402 397.038 426.259 396.039C426.099 394.897 426.726 387.008 427.088 386.195C427.8 384.596 432.146 382.598 433.628 380.516C435.854 377.387 435.047 374.847 435.583 371.32C437.321 370.3 445.024 360.907 445.747 360.769L445.752 360.764Z" fill="#D7281A"/>
<path d="M396.384 383.608C398.179 383.103 404.215 385.164 406.887 385.164C414.607 385.164 427.013 378.284 423.496 393.754C422.811 396.767 421.259 398.557 418.055 398.939C413.396 399.497 400.379 399.322 396.384 397.207C391.102 394.413 392.542 384.686 396.384 383.608Z" fill="#D7281A"/>
<path d="M426.248 380.861C429.139 380.861 431.482 378.518 431.482 375.628C431.482 372.738 429.139 370.395 426.248 370.395C423.358 370.395 421.015 372.738 421.015 375.628C421.015 378.518 423.358 380.861 426.248 380.861Z" fill="#D7281B"/>
</svg>
