<svg width="212" height="181" viewBox="0 0 212 181" fill="none" xmlns="http://www.w3.org/2000/svg">
<path d="M83.5697 88.572L95.1498 101.284C95.1498 101.284 98.5542 102.607 106.669 103C106.669 103 117.566 102.462 119.054 101.781L131.176 89.0537V79.0586L143.451 66.3794V58.7849H156.641L174.476 39.9685H143.637V33.7666C143.637 33.7666 167.169 32.714 175.179 21.4922C175.179 21.4922 179.926 16.4076 178.976 0C178.976 0 173.032 10.2502 158.335 13.2257C158.335 13.2257 140.831 15.0433 121.346 10.9101C121.346 10.9101 108.63 8.59446 91.624 11.076C91.624 11.076 81.7179 12.7277 74.9453 13.3917C74.9453 13.3917 58.02 15.6222 48.3605 10.4162C48.3605 10.4162 37.7912 5.53803 36.1416 0C36.1416 0 33.004 7.02778 37.1322 17.112C37.1322 17.112 40.0232 24.2208 45.7202 27.6092C45.7202 27.6092 49.8484 30.5846 55.4646 31.7424C55.4646 31.7424 59.427 32.9812 65.1241 33.4791L71.1527 33.7261V39.7621H40.2738L57.7774 58.6108H71.3184V66.3835L83.7031 78.8642L83.5374 88.2076L83.5778 88.5801L83.5697 88.572Z" fill="#EC1C25"/>
<path d="M40.5933 11.8169C40.5933 11.8169 42.0812 23.5974 57.4377 27.4392C57.4377 27.4392 67.2226 29.1759 75.8914 28.6779V44.6726H51.6154L59.6656 53.2307H75.8914V64.0193L88.4015 76.5446V86.4629L95.0891 94.025V63.3959L101.53 97.373C101.53 97.373 105.371 99.3566 113.05 97.373L119.491 63.3959V93.774L126.304 86.8313V76.662L138.814 64.1367V53.595L154.542 53.7205L163.336 44.9155L138.939 44.6686V28.7953C142.465 28.8399 145.485 28.6577 147.867 28.431C152.371 28.0019 155.428 27.338 157.943 26.7914C159.35 26.4838 160.603 26.1761 162.127 25.5689C162.786 25.3057 164.477 24.5932 166.462 23.2695C167.792 22.3788 169.45 21.2777 171.055 19.2657C172.551 17.3914 173.222 15.7114 173.364 15.347C173.906 13.9463 174.132 12.7035 174.229 11.8129C174.229 11.8129 168.904 16.8975 160.11 17.8893C160.11 17.8893 145.865 19.5005 131.997 17.1444C131.997 17.1444 123.574 15.9057 117.752 15.4077L107.409 69.9662L97.0663 15.4077C97.0663 15.4077 86.6629 17.9986 69.0744 18.618C69.0744 18.618 52.9739 20.4923 40.5892 11.8129L40.5933 11.8169Z" fill="white"/>
<path d="M16.0861 141.272V154.176H3.02246V119.915H41.9041V128.623H16.0861V132.769H30.796V141.268H16.0861V141.272Z" fill="#050707"/>
<path d="M73.0201 154.175V144.844C73.0201 143.289 72.4014 142.511 69.8307 142.511H58.1573V154.172H45.1968V119.911H73.9446C83.6126 119.911 85.7211 121.932 85.7211 128.099V133.23C85.7211 136.237 84.2313 137.896 82.0694 138.516C84.0748 138.982 85.9273 140.641 85.9273 143.439V154.168H73.0201V154.175ZM73.0201 130.643C73.0201 129.346 72.661 128.622 70.5525 128.622H58.1573V134.635H70.5525C72.8139 134.635 73.0201 133.858 73.0201 132.302V130.643Z" fill="#050707"/>
<path d="M90.1975 154.175V119.915H103.158V154.175H90.1975Z" fill="#050707"/>
<path d="M145.535 154.175V138.677L138.541 154.175H126.971L119.923 138.677V154.175H108.094V119.915H122.647L133.243 141.218L143.835 119.915H157.464V154.175H145.531H145.535Z" fill="#050707"/>
<path d="M162.403 154.175V119.915H175.364V154.175H162.403Z" fill="#050707"/>
<path d="M180.299 154.175V119.915H193.363V145.468H210.953V154.175H180.303H180.299Z" fill="#050707"/>
<path d="M211.29 113.863H0V116.059H211.29V113.863Z" fill="#050707"/>
<path d="M211.29 157.311H0V159.507H211.29V157.311Z" fill="#050707"/>
<path d="M137.476 163.001H73V181H137.476V163.001Z" fill="#EC1C25"/>
<path d="M80.2678 179.47V165.667H87.7988C89.1891 165.667 90.2451 165.997 90.9669 166.652C91.6887 167.308 92.0514 168.254 92.0514 169.483C92.0514 170.196 91.9198 170.798 91.6567 171.282C91.3936 171.769 91.0487 172.153 90.6256 172.439C91.2052 172.669 91.671 173.002 92.0194 173.436C92.3679 173.873 92.5385 174.518 92.5385 175.374C92.5385 176.675 92.1403 177.682 91.3474 178.395C90.5545 179.112 89.4273 179.466 87.9659 179.466H80.2678V179.47ZM84.1186 171.174H86.7143C87.6921 171.174 88.1828 170.73 88.1828 169.845C88.1828 169.401 88.0655 169.067 87.8308 168.838C87.5961 168.609 87.1908 168.494 86.6076 168.494H84.1186V171.174ZM84.1186 176.661H86.885C87.4254 176.661 87.8201 176.546 88.0761 176.317C88.3321 176.087 88.4601 175.711 88.4601 175.181C88.4601 174.736 88.3321 174.403 88.0761 174.174C87.8201 173.944 87.3934 173.83 86.7996 173.83H84.1186V176.661Z" fill="white"/>
<path d="M95.0952 179.47V165.667H105.474V168.752H99.0918V171.002H104.685V174.131H99.0918V176.381H105.474V179.466H95.0952V179.47Z" fill="white"/>
<path d="M107.814 179.47V165.667H118.193V168.752H111.811V171.002H117.404V174.131H111.811V176.381H118.193V179.466H107.814V179.47Z" fill="white"/>
<path d="M120.533 179.47V165.667H130.827V168.67H124.529V171.049H130.016V174.091H124.529V179.47H120.529H120.533Z" fill="white"/>
</svg>
